<mxfile host="app.diagrams.net" modified="2023-10-20T17:30:14.348Z" agent="Mozilla/5.0 (X11; Linux x86_64; rv:109.0) Gecko/20100101 Firefox/111.0" etag="RMCGJ2hB_dQavQFXO4PS" version="22.0.6" type="github">
  <diagram name="Página-1" id="eiewWcOPRpRyEWUg0_ie">
    <mxGraphModel dx="1434" dy="678" grid="1" gridSize="10" guides="1" tooltips="1" connect="1" arrows="1" fold="1" page="1" pageScale="1" pageWidth="827" pageHeight="1169" math="0" shadow="0">
      <root>
        <mxCell id="0" />
        <mxCell id="1" parent="0" />
        <mxCell id="qQndqSxkLwjnE5sqH5oN-1" value="floricultura" style="swimlane;childLayout=stackLayout;horizontal=1;startSize=50;horizontalStack=0;rounded=1;fontSize=14;fontStyle=0;strokeWidth=2;resizeParent=0;resizeLast=1;shadow=0;dashed=0;align=center;arcSize=4;whiteSpace=wrap;html=1;" vertex="1" parent="1">
          <mxGeometry x="80" y="170" width="160" height="120" as="geometry" />
        </mxCell>
        <mxCell id="qQndqSxkLwjnE5sqH5oN-2" value="&lt;div&gt;id&lt;/div&gt;&lt;div&gt;nome&lt;/div&gt;&lt;div&gt;endereço&lt;/div&gt;&lt;div&gt;telefone&lt;br&gt;&lt;/div&gt;" style="align=left;strokeColor=none;fillColor=none;spacingLeft=4;fontSize=12;verticalAlign=top;resizable=0;rotatable=0;part=1;html=1;" vertex="1" parent="qQndqSxkLwjnE5sqH5oN-1">
          <mxGeometry y="50" width="160" height="70" as="geometry" />
        </mxCell>
        <mxCell id="qQndqSxkLwjnE5sqH5oN-6" value="" style="edgeStyle=entityRelationEdgeStyle;fontSize=12;html=1;endArrow=ERoneToMany;rounded=0;exitX=1;exitY=0.25;exitDx=0;exitDy=0;" edge="1" parent="1" source="qQndqSxkLwjnE5sqH5oN-1">
          <mxGeometry width="100" height="100" relative="1" as="geometry">
            <mxPoint x="240" y="220" as="sourcePoint" />
            <mxPoint x="320" y="200" as="targetPoint" />
            <Array as="points">
              <mxPoint x="230" y="70" />
              <mxPoint x="240" y="90" />
              <mxPoint x="330" y="200" />
            </Array>
          </mxGeometry>
        </mxCell>
        <mxCell id="qQndqSxkLwjnE5sqH5oN-7" value="clientes" style="swimlane;childLayout=stackLayout;horizontal=1;startSize=50;horizontalStack=0;rounded=1;fontSize=14;fontStyle=0;strokeWidth=2;resizeParent=0;resizeLast=1;shadow=0;dashed=0;align=center;arcSize=4;whiteSpace=wrap;html=1;" vertex="1" parent="1">
          <mxGeometry x="320" y="150" width="160" height="150" as="geometry" />
        </mxCell>
        <mxCell id="qQndqSxkLwjnE5sqH5oN-8" value="&lt;div&gt;id&lt;/div&gt;&lt;div&gt;nome&lt;/div&gt;&lt;div&gt;telefone&lt;/div&gt;&lt;div&gt;rg&lt;/div&gt;&lt;div&gt;floricultuta_id&lt;br&gt;&lt;/div&gt;&lt;div&gt;&lt;br&gt;&lt;/div&gt;" style="align=left;strokeColor=none;fillColor=none;spacingLeft=4;fontSize=12;verticalAlign=top;resizable=0;rotatable=0;part=1;html=1;" vertex="1" parent="qQndqSxkLwjnE5sqH5oN-7">
          <mxGeometry y="50" width="160" height="100" as="geometry" />
        </mxCell>
        <mxCell id="qQndqSxkLwjnE5sqH5oN-9" value="produto" style="swimlane;childLayout=stackLayout;horizontal=1;startSize=50;horizontalStack=0;rounded=1;fontSize=14;fontStyle=0;strokeWidth=2;resizeParent=0;resizeLast=1;shadow=0;dashed=0;align=center;arcSize=4;whiteSpace=wrap;html=1;" vertex="1" parent="1">
          <mxGeometry x="570" y="160" width="160" height="120" as="geometry" />
        </mxCell>
        <mxCell id="qQndqSxkLwjnE5sqH5oN-10" value="&lt;div&gt;id&lt;/div&gt;&lt;div&gt;tipo&lt;/div&gt;&lt;div&gt;preço&lt;br&gt;&lt;/div&gt;&lt;div&gt;quantidade&lt;br&gt;&lt;/div&gt;" style="align=left;strokeColor=none;fillColor=none;spacingLeft=4;fontSize=12;verticalAlign=top;resizable=0;rotatable=0;part=1;html=1;" vertex="1" parent="qQndqSxkLwjnE5sqH5oN-9">
          <mxGeometry y="50" width="160" height="70" as="geometry" />
        </mxCell>
        <mxCell id="qQndqSxkLwjnE5sqH5oN-11" value="" style="edgeStyle=entityRelationEdgeStyle;fontSize=12;html=1;endArrow=ERoneToMany;rounded=0;" edge="1" parent="1">
          <mxGeometry width="100" height="100" relative="1" as="geometry">
            <mxPoint x="480" y="220" as="sourcePoint" />
            <mxPoint x="570" y="220" as="targetPoint" />
            <Array as="points">
              <mxPoint x="670" y="110" />
            </Array>
          </mxGeometry>
        </mxCell>
      </root>
    </mxGraphModel>
  </diagram>
</mxfile>
